<svg width="49" height="50" viewBox="0 0 49 50" fill="none" xmlns="http://www.w3.org/2000/svg">
<g clip-path="url(#clip0_139_653)">
<mask id="mask0_139_653" style="mask-type:luminance" maskUnits="userSpaceOnUse" x="1" y="1" width="47" height="49">
<path d="M47.3688 1.26807H1.29077V49.2635H47.3688V1.26807Z" fill="white"/>
</mask>
<g mask="url(#mask0_139_653)">
<path d="M2.73806 8.92416L2.67871 9.26656L2.52806 9.62722V10.0107L2.57828 10.4034L2.3911 10.764L2.44588 11.1567L2.36827 11.531L2.32718 11.9099L2.22675 12.2843L2.16283 12.6632L2.26783 13.0558L2.10805 13.4256L2.24957 13.8182L2.12631 14.1926L2.05326 14.5715L2.02131 14.9505L2.08979 15.3339L2.07152 15.7129L2.11261 16.0964L2.07609 16.4753L2.06696 16.8542L2.11718 17.2377L1.98022 17.6212L1.98935 18.0047V18.3882L2.15827 18.7671L2.14457 19.1506V19.5295L2.03044 19.9175L2.04413 20.301L2.14 20.68L2.18109 21.0589L2.29523 21.4332L2.31349 21.8167L2.23588 22.2093L2.3774 22.5791V22.9626L2.45045 23.3415L2.36371 23.7387L2.45045 24.1131L2.47784 24.4966L2.68785 24.8527L2.59197 25.259L2.74263 25.6242V26.0168L2.88415 26.3821L2.90242 26.7701L2.9709 27.149L3.17177 27.5006L3.11242 27.9115L3.22199 28.2812L3.31786 28.651L3.537 28.9889L3.61461 29.3632L3.70592 29.733L3.82461 30.0983L3.95244 30.4589L3.96158 30.8561L4.16702 31.1894L4.21723 31.5774L4.42724 31.9107L4.53224 32.2805L4.6829 32.632L4.75138 33.0155L4.87008 33.3807L5.10748 33.6957L5.21704 34.0655L5.46357 34.3714L5.56857 34.7412L5.80141 35.0516L5.96576 35.394L6.05707 35.7775L6.2899 36.0834L6.45882 36.4258L6.69621 36.7271L6.81948 37.0969L7.03405 37.4165L7.33536 37.6767L7.45406 38.0556L7.66863 38.3706L7.94255 38.6446L8.18908 38.9368L8.36713 39.2792L8.56344 39.6124L8.82367 39.8955L9.14324 40.1237L9.2802 40.5118L9.54955 40.7857L9.86913 41.0094L10.102 41.3153L10.3667 41.5892L10.6133 41.8814L10.8735 42.1599L11.2113 42.3562L11.54 42.5616L11.8048 42.8356L12.0468 43.1369L12.3709 43.3423L12.6859 43.5569L13.0146 43.7532L13.2612 44.0636L13.6264 44.2052L13.946 44.406L14.2473 44.6434L14.5942 44.8032L14.8545 45.1091L15.2243 45.2324L15.5027 45.5154L15.836 45.7026L16.1967 45.8395L16.5345 46.013L16.9271 46.0769L17.2284 46.3235L17.6074 46.4056L17.9269 46.6202L18.2739 46.78L18.6483 46.8713L18.9541 47.1361L19.3194 47.2457L19.6983 47.3187L20.0453 47.4785L20.4059 47.6018L20.7985 47.6155L21.1409 47.7889L21.4925 47.9487H21.8851L22.2184 48.1816L22.6155 48.1679L22.9899 48.2409L23.3369 48.4327L23.7249 48.4555L24.0947 48.5696L24.2773 48.5148L24.4371 48.4418L24.8252 48.4327H25.2178L25.5967 48.3687L25.93 48.1177L26.3089 48.0629L26.7107 48.0766L27.0804 47.9761L27.4046 47.7113L27.7972 47.6931L28.1716 47.6063L28.5368 47.4922L28.8838 47.3278L29.2627 47.2502L29.6188 47.1041L29.9703 46.9581L30.2944 46.7344L30.6597 46.6202L30.9929 46.4239L31.3627 46.3189L31.6732 46.0815L32.0658 46.013L32.3534 45.7345L32.6913 45.5565L33.0793 45.4698L33.4308 45.3145L33.7595 45.1182L34.0152 44.8078L34.3485 44.6252L34.6817 44.438L35.0104 44.2417L35.3118 44.0088L35.6724 43.8536L35.9144 43.5386L36.2842 43.3925L36.5627 43.1277L36.8959 42.9269L37.147 42.6301L37.4209 42.3653L37.7588 42.1644L37.9916 41.854L38.2975 41.6212L38.4481 41.2331L38.7768 41.0231L39.0508 40.7583L39.2608 40.4342L39.5347 40.1694L39.7675 39.8681L40.0369 39.5942L40.2697 39.2928L40.5299 39.0098L40.6669 38.64L40.8997 38.3387L41.2056 38.0876L41.3334 37.7132L41.5845 37.4211L41.8539 37.138L41.9315 36.7408L42.1826 36.4486L42.4383 36.1565L42.5067 35.7593L42.6483 35.4077L42.9267 35.1247L43.0226 34.7458L43.1961 34.4079L43.4015 34.0838L43.47 33.6957L43.6161 33.3442L43.9037 33.052L44.0453 32.6959L44.0909 32.3033L44.2005 31.9381L44.3329 31.582L44.5337 31.2487L44.5657 30.8561L44.7346 30.5091L44.7985 30.1302L44.9172 29.7695L45.1364 29.4363L45.2368 29.0665L45.2551 28.6739L45.4331 28.3223L45.4651 27.9343L45.5838 27.5691L45.5564 27.1719L45.7344 26.8158L45.6933 26.4186L45.8257 26.0534L45.8897 25.6744L45.981 25.3001V24.912L46.0951 24.5422L46.0723 24.1542L46.191 23.7844L46.3234 23.4146L46.2686 23.022L46.2777 22.6385L46.3599 22.2641L46.3371 21.8761L46.5242 21.5063V21.1182L46.4375 20.7256V20.3421L46.4786 19.9586L46.6155 19.5797L46.5151 19.1917L46.5653 18.8082V18.4247L46.6612 18.0412L46.5242 17.6577L46.6886 17.2742L46.6384 16.8907L46.6658 16.5072V16.1237L46.5836 15.7448L46.6521 15.3613L46.6384 14.9778L46.5699 14.5989L46.4649 14.2246L46.5288 13.8411L46.4877 13.4622L46.5105 13.0787L46.4284 12.7043L46.3781 12.3254L46.3599 11.9419L46.2503 11.5675L46.1864 11.1932L46.2731 10.8006L46.1453 10.4308L46.0586 10.0609V9.67744L45.9536 9.31222L45.9307 8.98351L45.5975 8.93786L45.2231 8.85112L44.8442 8.81916L44.4561 8.87851L44.0863 8.72785L43.7029 8.71416L43.3285 8.65024H42.945L42.5706 8.59089L42.1917 8.54524L41.8082 8.53154L41.4339 8.45393L41.0641 8.3535L40.6852 8.31241L40.3108 8.2348L39.9319 8.17545L39.5758 8.00653L39.2014 7.93348L38.7997 8.01566L38.4481 7.83761L38.0875 7.71435L37.7086 7.67326H37.3159L36.9735 7.47695H36.5809L36.202 7.40847L35.855 7.22129L35.4715 7.17564L35.1291 6.98389L34.7685 6.85606L34.353 6.90628L34.038 6.6278L33.6682 6.52736L33.2893 6.46344L32.9013 6.41323L32.5497 6.26257L32.2347 6.01148L31.8467 5.95213L31.454 5.90191L31.139 5.66451L30.751 5.60059L30.4451 5.3358L30.089 5.19884L29.7557 5.0071L29.3768 4.91579L29.039 4.73774L28.7057 4.55057L28.3633 4.38165L27.9798 4.29034L27.6739 4.04838L27.327 3.88859L26.9709 3.7425L26.6011 3.61011L26.35 3.2814L25.9665 3.1764L25.688 2.89791L25.373 2.68334L25.0443 2.48703L24.7476 2.24507L24.3778 2.1355L24.0765 2.34094L23.7021 2.46421L23.4145 2.72443L23.1406 3.00748L22.8073 3.19923L22.4329 3.32249L22.1088 3.52793L21.7892 3.7425L21.4194 3.86576L21.0633 4.01642L20.7164 4.18077L20.4014 4.39991L20.0772 4.60992L19.6983 4.70579L19.3468 4.86101L19.0135 5.04819L18.6665 5.20797L18.3561 5.44994L18.0137 5.62799L17.6256 5.6919L17.2513 5.78321L16.8906 5.9156L16.571 6.153L16.2012 6.258L15.8223 6.33105L15.4845 6.52736L15.1147 6.6278L14.7677 6.79671L14.3751 6.82411L13.9916 6.88346L13.6629 7.12085L13.284 7.1939L12.9051 7.26238L12.5535 7.43586L12.1792 7.5226L11.7911 7.54999L11.4442 7.7463L11.0424 7.70978L10.6954 7.91522H10.3028L9.91021 7.89696L9.56781 8.13436L9.16606 8.06131L8.80998 8.2348L8.43562 8.30328L8.05212 8.33523L7.66863 8.3535L7.29427 8.41284L6.91079 8.42197L6.53643 8.50415L6.1712 8.65937L5.78315 8.64111L5.40879 8.74611L5.01617 8.63655L4.64638 8.75981L4.26745 8.81459H3.88853L3.50504 8.79633L3.12612 8.78264L2.78828 8.92416H2.73806Z" stroke="#333333" stroke-width="1.00071" stroke-miterlimit="10"/>
<path d="M22.255 16.9178L22.2778 16.5298L22.3874 16.1554L22.5837 15.813L22.8394 15.5163L23.1544 15.2789L23.5059 15.11L23.8757 14.9821L24.2637 14.9502L24.355 14.9593L24.7294 15.0095L25.0901 15.1282L25.4325 15.3017L25.7064 15.5619L25.962 15.8404L26.1538 16.1737L26.236 16.5435L26.3044 16.9178L26.2953 17.2968L26.2907 17.6757L26.2999 18.0546L26.2953 18.4335L26.2862 18.8125L26.2907 19.1914L26.2771 19.5703L26.2907 19.9492L26.2771 20.3327V20.7162L26.2907 21.0951L26.236 21.4832L26.1264 21.853L25.9438 22.1999L25.6927 22.5012L25.3822 22.7432L25.0307 22.9121L24.6564 23.0354L24.2637 23.0719L23.8802 23.008L23.5059 22.903L23.1452 22.7432L22.8439 22.4921L22.5883 22.1999L22.3874 21.8621L22.2824 21.4832L22.2413 21.0951L22.2367 20.7162L22.2413 20.3373L22.2322 19.9584L22.255 19.5794L22.2413 19.2005L22.2504 18.8216L22.2459 18.4427V18.0637L22.2322 17.6848V17.3013L22.255 16.9178Z" fill="#333333"/>
<path d="M9.22546 23.0401L8.97892 22.7388L8.79175 22.4009L8.68218 22.0266L8.65479 21.6431L8.67305 21.255L8.80544 20.8944L8.97892 20.5474L9.24372 20.2644L9.30762 20.1913L9.61351 19.9585L9.96047 19.7987L10.3302 19.7074L10.7137 19.6846L11.0927 19.7393L11.4625 19.8352L11.8003 20.0133L12.097 20.2598L12.3755 20.5246L12.6494 20.7939L12.9325 21.0542L13.1973 21.3372L13.4849 21.5929L13.7679 21.8577L14.0236 22.1407L14.3204 22.3964L14.5943 22.6703L14.8682 22.9442L15.1558 23.209L15.4023 23.5057L15.5804 23.8481L15.7037 24.2134L15.7265 24.6014L15.7037 24.9849L15.5758 25.3501L15.3886 25.6834L15.1512 25.9847L14.8362 26.2221L14.4893 26.4093L14.1104 26.5234L13.7177 26.5691L13.3251 26.528L12.9462 26.4093L12.5901 26.2404L12.2796 25.9939L12.0194 25.7062L11.7409 25.4414L11.4488 25.1904L11.1794 24.9119L10.9009 24.6516L10.6179 24.3869L10.3485 24.1084L10.0746 23.839L9.79156 23.5742L9.51307 23.3003L9.23001 23.0355L9.22546 23.0401Z" fill="#333333"/>
<path d="M13.6628 31.9104L13.85 31.5588L14.0692 31.2393L14.3111 30.9379L14.5622 30.6458L14.8087 30.3536L15.037 30.0386L15.2835 29.7418L15.6031 29.5136L15.8816 29.2488L16.1464 28.9657L16.4477 28.7283L16.7536 28.4955L17.0549 28.249L17.3516 28.0024L17.6895 27.8107L18.0182 27.6098L18.3606 27.4318L18.7212 27.2902L19.0408 27.062L19.4197 26.9661L19.7576 26.7698L20.1411 26.6922L20.4926 26.5324L20.8533 26.3954L21.2276 26.3041L21.6065 26.2174L21.99 26.158L22.3735 26.1169L22.7479 26.0165L23.1359 25.9845L23.5194 25.98L23.9075 25.9663L24.2955 25.9617L24.679 25.9343L25.0625 26.0119L25.4506 25.9937L25.8386 26.0165L26.213 26.1398L26.6056 26.1306L26.9799 26.2265L27.3497 26.3269L27.7287 26.4046L28.0985 26.5278L28.4546 26.6739L28.8243 26.788L29.1667 26.9707L29.5365 27.0894L29.8698 27.2902L30.2076 27.4683L30.5637 27.6235L30.8787 27.8472L31.212 28.039L31.5407 28.2398L31.8694 28.4498L32.1662 28.6918L32.4447 28.9657L32.7597 29.1894L33.0427 29.4588L33.2573 29.7875L33.5312 30.0568L33.8325 30.3079L34.0517 30.6275L34.2936 30.9288L34.531 31.2301L34.7182 31.5725L34.9191 31.8967L34.5402 31.9104L34.1612 31.9058L33.7869 31.9241L33.4079 31.8647L33.029 31.9012L32.6547 31.883L32.2757 31.8921L31.9014 31.8967L31.5225 31.9241L31.1435 31.9286L30.7692 31.9241L30.3903 31.9195L30.0113 31.8738L29.6324 31.8967L29.2535 31.9423L28.8746 31.8784L28.4956 31.9241L28.1167 31.9104L27.7378 31.9058L27.3589 31.8784L26.9799 31.8601L26.601 31.9241L26.2221 31.8647L25.8432 31.9423L25.4643 31.8967L25.0853 31.8693L24.7064 31.8647L24.3229 31.9012H23.944L23.5651 31.9241L23.1861 31.9104H22.8072L22.4283 31.9332L22.0448 31.8693H21.6659H21.287L20.908 31.9423L20.5246 31.9286L20.1456 31.9241L19.7667 31.8647L19.3832 31.8601L19.0043 31.8921L18.6254 31.9012L18.2464 31.9378L17.8675 31.9332L17.484 31.883L17.1051 31.9286L16.7262 31.9104L16.3427 31.9241L15.9638 31.8601L15.5803 31.8784L15.2014 31.8647L14.8179 31.9378L14.4344 31.8647L14.0509 31.9012L13.6628 31.9104Z" fill="#333333"/>
<path d="M39.3521 23.0218L39.0737 23.2865L38.8089 23.5696L38.5258 23.8298L38.2428 24.0946L37.9643 24.3594L37.6904 24.6288L37.4164 24.8981L37.1471 25.1766L36.8732 25.4505L36.5901 25.7199L36.3071 25.9847L35.9921 26.2221L35.6451 26.4001L35.2662 26.5188L34.8735 26.5645L34.4855 26.5051L34.1066 26.4001L33.755 26.2312L33.4492 25.9801L33.3807 25.9116L33.1478 25.6194L32.9698 25.2862L32.8785 24.9255L32.8511 24.5511L32.9013 24.1768L33.0291 23.8298L33.1935 23.492L33.4537 23.2226L33.7139 22.9396L34.0061 22.6839L34.2709 22.4054L34.5448 22.1315L34.8233 21.8667L35.0972 21.5974L35.3803 21.3326L35.6633 21.0724L35.9281 20.7893L36.2112 20.5245L36.4942 20.2597L36.8047 20.0132L37.1562 19.8351L37.5351 19.7119L37.9278 19.6982L38.3204 19.7164L38.7039 19.8214L39.0417 20.0223L39.3658 20.2506L39.6124 20.5473L39.795 20.8897L39.9182 21.2595L39.9548 21.643L39.9045 22.0265L39.7995 22.3963L39.5987 22.7296L39.3613 23.0309L39.3521 23.0218Z" fill="#333333"/>
</g>
</g>
<defs>
<clipPath id="clip0_139_653">
<rect width="48" height="49" fill="white" transform="translate(0.330078 0.300049)"/>
</clipPath>
</defs>
</svg>
