<svg width="90" height="85" viewBox="0 0 90 85" fill="none" xmlns="http://www.w3.org/2000/svg">
<path d="M89.5 42.5C89.5 65.6694 69.604 84.5 45 84.5C20.396 84.5 0.5 65.6694 0.5 42.5C0.5 19.3306 20.396 0.5 45 0.5C69.604 0.5 89.5 19.3306 89.5 42.5Z" stroke="#939393"/>
<path d="M54.9794 27.7547C59.9182 27.7547 63.9906 32.3561 63.9906 37.9309C63.9906 43.9482 58.8785 47.6647 54.0263 52.0892C49.1742 56.5137 46.6614 58.9029 45.795 59.4338C44.8419 58.8144 41.7226 55.8942 37.5636 52.0892C32.6248 47.6647 27.5994 43.9482 27.5994 37.9309C27.5994 32.3561 31.6717 27.7547 36.6105 27.7547C40.2497 27.7547 42.2425 29.5244 43.6288 31.5597C45.2751 33.8604 45.535 35.0108 45.795 35.0108C46.0549 35.0108 46.3149 33.8604 47.9611 31.5597C49.3475 29.5244 51.3403 27.7547 54.9794 27.7547ZM54.9794 25.1C51.0804 25.1 48.1344 26.6928 45.795 30.0554C43.4555 26.7813 40.5096 25.1885 36.6105 25.1885C30.1987 25.1 25 30.8518 25 37.9309C25 44.3906 29.6789 48.5496 34.1844 52.5316C34.7043 52.9741 35.3108 53.505 35.8307 54.036L37.8236 55.8058C41.636 59.2568 43.5422 61.0266 44.4086 61.5576C44.8419 61.823 45.3617 62 45.795 62C46.3149 62 46.7481 61.823 47.1813 61.5576C48.0478 61.0266 49.6074 59.6108 53.9397 55.5403L55.6726 53.9475C56.2791 53.4165 56.799 52.8856 57.4055 52.4432C61.9977 48.5496 66.59 44.4791 66.59 37.9309C66.59 30.8518 61.3912 25.1 54.9794 25.1Z" fill="#FF7425"/>
</svg>
