<svg width="90" height="85" viewBox="0 0 90 85" fill="none" xmlns="http://www.w3.org/2000/svg">
<path d="M30.6 28.9H59.4C61.38 28.9 63 30.43 63 32.3V52.7C63 54.57 61.38 56.1 59.4 56.1H30.6C28.62 56.1 27 54.57 27 52.7V32.3C27 30.43 28.62 28.9 30.6 28.9Z" stroke="#FF7425" stroke-width="3" stroke-linecap="round" stroke-linejoin="round"/>
<path d="M63 32.2999L45 44.1999L27 32.2999" stroke="#FF7425" stroke-width="3" stroke-linecap="round" stroke-linejoin="round"/>
<path d="M89.5 42.5C89.5 65.6694 69.604 84.5 45 84.5C20.396 84.5 0.5 65.6694 0.5 42.5C0.5 19.3306 20.396 0.5 45 0.5C69.604 0.5 89.5 19.3306 89.5 42.5Z" stroke="#939393"/>
</svg>
