<svg width="49" height="52" viewBox="0 0 49 52" fill="none" xmlns="http://www.w3.org/2000/svg">
<g clip-path="url(#clip0_139_635)">
<mask id="mask0_139_635" style="mask-type:luminance" maskUnits="userSpaceOnUse" x="1" y="0" width="48" height="51">
<path d="M48.4813 0.344482H1.01685V50.7255H48.4813V0.344482Z" fill="white"/>
</mask>
<g mask="url(#mask0_139_635)">
<path d="M18.136 5.68914L19.2212 5.66201L20.32 5.68914L21.4188 5.66201L22.5176 5.67557H23.6028H24.7151L25.8139 5.64844L26.9127 5.66201L28.025 5.68914" stroke="#333333" stroke-linecap="round" stroke-linejoin="round"/>
<path d="M32.4608 19.4579L32.3252 18.8745L32.1081 18.3184L31.8504 17.7758L31.4299 17.3553L31.0365 16.8669L30.5481 16.4735L30.0055 16.1615L29.4222 15.9309L28.8254 15.741L28.2014 15.6867L27.5774 15.7274L26.9534 15.7817L26.3701 16.0123L25.8003 16.2565L25.2984 16.6227L24.7965 16.989L24.3895 17.4638L23.9555 17.9114L23.6842 18.4676L23.2772 18.9424L23.0737 19.4985L22.8703 18.9424L22.4904 18.4405L22.2056 17.8843L21.785 17.4231L21.351 16.989L20.9033 16.5549L20.3471 16.2565L19.7774 15.9987L19.1941 15.741L18.5701 15.646L17.9461 15.6867L17.3357 15.7681L16.7252 15.9038L16.1555 16.1751L15.5993 16.4599L15.1381 16.8805L14.6905 17.3146L14.3513 17.7893L14.0529 18.2912L13.8223 18.8339L13.7273 19.4036L13.6188 19.9733L13.5781 20.5566L13.7273 21.1264L13.7545 21.7097L13.9579 22.2658L14.175 22.7949L14.7176 23.7173L14.6769 23.7444L15.0025 24.2599L15.3958 24.7211L15.7485 25.223L16.1284 25.6978L16.5218 26.159L16.983 26.566L17.4442 26.9594L17.9054 27.3663L18.3802 27.7597L18.855 28.1531L19.384 28.4651L19.8859 28.8178L20.4014 29.1434L20.9169 29.4825L21.4459 29.8081L21.9614 30.1472L22.5176 30.4049L23.033 30.7576L23.5756 30.4592L24.064 30.0929L24.6202 29.8623L25.1085 29.4961L25.624 29.1841L26.153 28.8856L26.6414 28.533L27.1568 28.2074L27.5774 27.7733L28.0521 27.3935L28.5269 27.0136L28.9339 26.5796L29.368 26.1726L29.7749 25.7385L30.2226 25.3316L30.5753 24.8432L30.9822 24.3956L31.3213 23.8937L31.6198 23.3782L31.8504 22.822L32.0946 22.2794L32.3116 21.7232L32.4337 21.1399L32.5151 20.5566L32.5422 19.9598L32.4608 19.3765V19.4579Z" fill="#333333"/>
<path d="M41.4138 20.0818L42.4719 20.2446L43.53 20.3803L44.6016 20.5159L45.6597 20.6516L46.7314 20.8008L47.803 20.9364L47.6402 22.0759L47.5046 23.2018L47.3418 24.3277L47.179 25.4672L47.0027 26.6067L46.8534 27.7326" stroke="#333333" stroke-linecap="round" stroke-linejoin="round"/>
<path d="M5.6154 29.8759L4.58445 30.3914L3.71628 31.1239L2.86167 31.8835L2.22411 32.8195L1.70863 33.8098L1.69507 34.9086L2.12915 35.9667L3.10584 36.5635L4.0961 37.1061L5.20844 37.3232L6.29366 37.6216L7.41957 37.7301L8.55904 37.8115L9.68495 37.6759L10.8108 37.7166L11.9368 37.5674L13.0627 37.4317L14.175 37.2418L15.2874 37.0926L16.4133 36.9841L17.512 36.6992L18.5837 36.3736L19.6553 36.0209L20.7812 35.8039L21.8665 35.519L22.9381 35.1392L23.9826 34.678L25.0543 34.3117L26.1259 33.9455L27.1433 33.4435L28.215 33.0502L29.2052 32.494L30.304 32.1413L31.2536 31.5037L32.2845 31.0289L33.2748 30.4999L34.3057 30.0116L35.3095 29.4961L36.2591 28.8721L37.2901 28.3837L38.226 27.7326L39.1756 27.095L40.1794 26.5524L41.0747 25.847L42.065 25.2909L42.9196 24.5177L43.8285 23.8394L44.7916 23.229L45.714 22.5507L46.5415 21.7775L47.5182 21.1399" stroke="#333333" stroke-linecap="round" stroke-linejoin="round"/>
<path d="M33.9259 49.9658L32.7864 49.898L31.6469 49.9929L30.5075 49.8573L29.368 49.9115L28.2285 50.0336L27.089 49.9658L25.9496 49.8844L24.8101 49.9115L23.6706 50.0201L22.5311 49.9251L21.3917 49.898L20.2386 49.9794L19.0992 49.9251L17.9597 49.9387L16.8202 50.0472L15.6672 50.0336L14.5277 49.8844L13.3747 49.9115H12.2216L11.1635 49.803L10.3089 49.1519L9.76627 48.2566L9.42714 47.2392L9.52209 46.0997L9.54922 44.9603L9.46783 43.8343L9.41357 42.6949L9.49496 41.5554L9.57635 40.4159L9.50853 39.2765L9.57635 38.137L9.54922 36.9975L9.58992 35.8445L9.54922 34.705L9.50853 33.5655L9.4814 32.426L9.41357 31.2866L9.50853 30.1471L9.57635 29.0076L9.4814 27.8681L9.52209 26.7287L9.42714 25.5756L9.46783 24.4362L9.52209 23.2967L9.42714 22.1572L9.46783 21.0177L9.57635 19.8647L9.60349 18.7252L9.49496 17.5857L9.54922 16.4463L9.56279 15.3068L9.50853 14.1538L9.4407 13.0143L9.53566 11.8748L9.60349 10.7218L9.45427 9.58233L9.57635 8.44285L9.41357 7.28982L9.45427 6.13678L9.42714 4.98374V3.8307L9.77983 2.81331L10.2682 1.89088L11.15 1.25331L12.2216 1.11766L13.3611 1.15836L14.5006 1.13123L15.64 1.21262L16.7795 1.07697L17.919 1.18549L19.0585 1.07697L20.1979 1.02271L21.3374 1.0634L22.4769 1.09053L23.6163 1.18549L24.7558 1.07697L25.9089 1.03627L27.0483 1.09053H28.1878L29.3273 1.03627L30.4803 1.09053L31.6198 1.11766L32.7728 1.13123L33.9259 1.07697L34.9704 1.32114L35.825 1.93157L36.4897 2.77261L36.6118 3.8307L36.6796 4.97017L36.5846 6.10965L36.5711 7.24912L36.5575 8.38859L36.666 9.5145L36.6253 10.6539L36.5575 11.7934L36.666 12.9329L36.6118 14.0859L36.7203 15.2254L36.5711 16.3649L36.666 17.5044L36.5982 18.6438L36.5575 19.7833L36.7339 20.9228L36.6525 22.0758L36.6796 23.2153L36.544 24.3548L36.6525 25.4942V26.6337L36.6389 27.7868L36.6796 28.9262L36.6253 30.0657L36.5846 31.2052V32.3446L36.7203 33.4841V34.6236L36.6525 35.7766L36.6932 36.9161V38.0556L36.6118 39.2086L36.6253 40.3481L36.5711 41.5011L36.544 42.6406L36.5711 43.7801L36.6389 44.9331L36.5575 46.0862L36.5982 47.2392L36.449 48.2837L35.8793 49.1926L34.9704 49.7759L33.9259 49.9658Z" stroke="#333333" stroke-linecap="round" stroke-linejoin="round"/>
</g>
</g>
<defs>
<clipPath id="clip0_139_635">
<rect width="48" height="51" fill="white" transform="translate(0.659912 0.300049)"/>
</clipPath>
</defs>
</svg>
