<svg width="90" height="85" viewBox="0 0 90 85" fill="none" xmlns="http://www.w3.org/2000/svg">
<path d="M89.5 42.5C89.5 65.6694 69.604 84.5 45 84.5C20.396 84.5 0.5 65.6694 0.5 42.5C0.5 19.3306 20.396 0.5 45 0.5C69.604 0.5 89.5 19.3306 89.5 42.5Z" stroke="#939393"/>
<g clip-path="url(#clip0_227_235)">
<path d="M45.44 64C33.098 64 23 54.1 23 42C23 29.9 33.098 20 45.44 20C57.782 20 67.88 29.9 67.88 42C67.88 54.1 57.782 64 45.44 64ZM45.44 22.75C34.594 22.75 25.805 31.3667 25.805 42C25.805 52.6333 34.594 61.25 45.44 61.25C56.286 61.25 65.075 52.6333 65.075 42C65.075 31.3667 56.286 22.75 45.44 22.75Z" fill="#FF7425"/>
<path d="M55.6315 42C55.6315 40.7167 54.603 39.7084 53.294 39.7084C51.985 39.7084 50.9565 40.7167 50.9565 42C50.9565 43.2834 51.985 44.2917 53.294 44.2917C54.603 44.2917 55.6315 43.2834 55.6315 42ZM35.2485 42C35.2485 40.7167 36.277 39.7084 37.586 39.7084C38.895 39.7084 39.9235 40.7167 39.9235 42C39.9235 43.2834 38.895 44.2917 37.586 44.2917C36.277 44.2917 35.2485 43.2834 35.2485 42ZM45.44 54.1917C40.578 54.1917 37.96 50.9834 37.773 50.8C37.3055 50.25 37.399 49.3334 37.96 48.875C38.521 48.4167 39.456 48.5084 39.9235 49.0584C40.017 49.15 41.887 51.35 45.3465 51.35C48.806 51.35 50.7695 49.0584 50.7695 49.0584C51.237 48.5084 52.172 48.4167 52.733 48.875C53.294 49.3334 53.3875 50.25 52.92 50.8C52.92 50.9834 50.302 54.1917 45.44 54.1917Z" fill="#FF7425"/>
</g>
<defs>
<clipPath id="clip0_227_235">
<rect width="44.88" height="44" fill="white" transform="translate(23 20)"/>
</clipPath>
</defs>
</svg>
