<svg width="40" height="41" viewBox="0 0 40 41" fill="none" xmlns="http://www.w3.org/2000/svg">
<rect x="0.5" y="1.28998" width="39" height="39" rx="19.5" fill="#F1F1F1"/>
<g clip-path="url(#clip0_104_512)">
<path fill-rule="evenodd" clip-rule="evenodd" d="M23.4739 18.8C22.572 19.7689 21.3227 20.3407 19.9999 20.39C18.6771 20.3405 17.4279 19.7684 16.5262 18.7993C15.6245 17.8301 15.144 16.5429 15.1899 15.22C15.1413 13.8953 15.6206 12.6056 16.5226 11.6342C17.4245 10.6629 18.6753 10.0895 19.9999 10.04C21.3245 10.0895 22.5753 10.6629 23.4772 11.6342C24.3792 12.6056 24.8586 13.8953 24.8099 15.22C24.8561 16.5431 24.3757 17.8306 23.4739 18.8ZM22.4109 12.7C21.7913 12.011 20.9249 11.5942 19.9999 11.54C19.0749 11.5942 18.2086 12.011 17.5889 12.7C16.9692 13.3889 16.6462 14.2944 16.6899 15.22C16.6463 16.1445 16.9696 17.0489 17.5895 17.7363C18.2094 18.4236 19.0758 18.8383 19.9999 18.89C20.9241 18.8383 21.7904 18.4236 22.4103 17.7363C23.0302 17.0489 23.3536 16.1445 23.3099 15.22C23.3533 14.2943 23.0299 13.3888 22.4099 12.7H22.4109ZM23.1999 21.21C27.7599 22.37 29.2299 26.18 30.1399 30.12C30.1667 30.2186 30.1731 30.3216 30.1587 30.4227C30.1442 30.5239 30.1092 30.621 30.0558 30.7081C30.0024 30.7952 29.9318 30.8705 29.8482 30.9293C29.7646 30.9881 29.6699 31.0291 29.5699 31.05H29.3999C29.2311 31.0481 29.0677 30.9901 28.9355 30.8851C28.8033 30.7801 28.7099 30.634 28.6699 30.47C27.7599 26.5 26.5199 23.79 23.2599 22.79C22.8397 23.232 22.3341 23.5839 21.7736 23.8244C21.2132 24.0649 20.6098 24.1889 19.9999 24.1889C19.3901 24.1889 18.7866 24.0649 18.2262 23.8244C17.6658 23.5839 17.1601 23.232 16.7399 22.79C13.4799 23.79 12.2399 26.49 11.3299 30.46C11.3003 30.5794 11.2421 30.6898 11.1604 30.7817C11.0787 30.8737 10.9759 30.9444 10.8609 30.9879C10.7458 31.0314 10.6219 31.0463 10.4998 31.0313C10.3777 31.0163 10.2611 30.972 10.1599 30.902C10.0378 30.8163 9.94402 30.6961 9.89058 30.5568C9.83714 30.4175 9.82646 30.2654 9.85991 30.12C10.7999 26.21 12.2399 22.37 16.7999 21.21C16.9347 21.1728 17.0774 21.1757 17.2106 21.2184C17.3438 21.261 17.4617 21.3415 17.5499 21.45C17.8429 21.8188 18.2154 22.1167 18.6397 22.3215C19.0639 22.5263 19.5289 22.6327 19.9999 22.6327C20.471 22.6327 20.936 22.5263 21.3602 22.3215C21.7844 22.1167 22.1569 21.8188 22.4499 21.45C22.5381 21.3415 22.656 21.261 22.7892 21.2184C22.9224 21.1757 23.0651 21.1728 23.1999 21.21Z" fill="#333333"/>
</g>
<rect x="0.5" y="1.28998" width="39" height="39" rx="19.5" stroke="white"/>
<defs>
<clipPath id="clip0_104_512">
<rect width="24" height="24" fill="white" transform="translate(8 8.78998)"/>
</clipPath>
</defs>
</svg>
