<svg width="24" height="25" viewBox="0 0 24 25" fill="none" xmlns="http://www.w3.org/2000/svg">
<g id="avatar">
<path id="Vector" fill-rule="evenodd" clip-rule="evenodd" d="M15.4739 10.8C14.572 11.769 13.3227 12.3408 11.9999 12.39C10.6771 12.3405 9.42789 11.7685 8.52621 10.7993C7.62454 9.83016 7.14398 8.54299 7.18991 7.22004C7.14127 5.8954 7.62061 4.60564 8.52258 3.6343C9.42454 2.66295 10.6753 2.08952 11.9999 2.04004C13.3245 2.08952 14.5753 2.66295 15.4772 3.6343C16.3792 4.60564 16.8586 5.8954 16.8099 7.22004C16.8561 8.54319 16.3757 9.83065 15.4739 10.8ZM14.4109 4.70004C13.7913 4.01111 12.9249 3.5943 11.9999 3.54004C11.0749 3.59429 10.2086 4.0111 9.58889 4.70003C8.96922 5.38897 8.6462 6.29445 8.68991 7.22004C8.64627 8.14461 8.9696 9.04899 9.58952 9.73633C10.2094 10.4237 11.0758 10.8383 11.9999 10.89C12.9241 10.8383 13.7904 10.4237 14.4103 9.73633C15.0302 9.04899 15.3536 8.14461 15.3099 7.22004C15.3533 6.29432 15.0299 5.38881 14.4099 4.70004H14.4109ZM15.1999 13.21C19.7599 14.37 21.2299 18.18 22.1399 22.12C22.1667 22.2186 22.1731 22.3217 22.1587 22.4228C22.1442 22.5239 22.1092 22.6211 22.0558 22.7082C22.0024 22.7953 21.9318 22.8705 21.8482 22.9293C21.7646 22.9881 21.6699 23.0292 21.5699 23.05H21.3999C21.2311 23.0482 21.0677 22.9902 20.9355 22.8851C20.8033 22.7801 20.7099 22.6341 20.6699 22.47C19.7599 18.5 18.5199 15.79 15.2599 14.79C14.8397 15.232 14.3341 15.584 13.7736 15.8244C13.2132 16.0649 12.6098 16.1889 11.9999 16.1889C11.3901 16.1889 10.7866 16.0649 10.2262 15.8244C9.66576 15.584 9.16009 15.232 8.73991 14.79C5.47991 15.79 4.23991 18.49 3.32991 22.46C3.30029 22.5794 3.24213 22.6898 3.16043 22.7818C3.07873 22.8737 2.97593 22.9445 2.86086 22.988C2.74579 23.0314 2.62189 23.0463 2.4998 23.0314C2.37771 23.0164 2.26107 22.972 2.15991 22.902C2.0378 22.8163 1.94402 22.6961 1.89058 22.5568C1.83714 22.4175 1.82646 22.2654 1.85991 22.12C2.79991 18.21 4.23991 14.37 8.79991 13.21C8.93473 13.1729 9.07744 13.1758 9.21063 13.2184C9.34382 13.261 9.46171 13.3415 9.54991 13.45C9.84292 13.8189 10.2154 14.1168 10.6397 14.3216C11.0639 14.5264 11.5289 14.6327 11.9999 14.6327C12.471 14.6327 12.936 14.5264 13.3602 14.3216C13.7844 14.1168 14.1569 13.8189 14.4499 13.45C14.5381 13.3415 14.656 13.261 14.7892 13.2184C14.9224 13.1758 15.0651 13.1729 15.1999 13.21Z" fill="#333333"/>
</g>
</svg>
