<svg width="25" height="25" viewBox="0 0 25 25" fill="none" xmlns="http://www.w3.org/2000/svg">
<g id="star">
<path id="Vector" d="M17.5101 21.8837C17.225 21.8815 16.9443 21.813 16.6901 21.6837L12.5701 19.5137L8.45011 21.7037C8.15998 21.855 7.83339 21.9225 7.50704 21.8985C7.18068 21.8745 6.86748 21.76 6.60261 21.5678C6.33774 21.3757 6.13169 21.1135 6.00759 20.8107C5.8835 20.5079 5.84628 20.1765 5.90011 19.8537L6.69011 15.2637L3.35011 11.9837C3.11504 11.7528 2.94952 11.4605 2.87239 11.1401C2.79525 10.8198 2.8096 10.4842 2.9138 10.1716C3.01801 9.85898 3.20787 9.58191 3.4618 9.3719C3.71572 9.16189 4.0235 9.02739 4.35011 8.98369L8.96011 8.31369L11.0301 4.13369C11.1745 3.84049 11.3981 3.59358 11.6755 3.42092C11.953 3.24825 12.2733 3.15674 12.6001 3.15674C12.9269 3.15674 13.2472 3.24825 13.5247 3.42092C13.8022 3.59358 14.0257 3.84049 14.1701 4.13369L16.2401 8.31369L20.8501 8.98369C21.1767 9.02739 21.4845 9.16189 21.7384 9.3719C21.9923 9.58191 22.1822 9.85898 22.2864 10.1716C22.3906 10.4842 22.405 10.8198 22.3278 11.1401C22.2507 11.4605 22.0852 11.7528 21.8501 11.9837L18.5101 15.2437L19.3001 19.8337C19.357 20.1557 19.3214 20.4873 19.1975 20.79C19.0736 21.0926 18.8665 21.354 18.6001 21.5437C18.2876 21.7808 17.902 21.9011 17.5101 21.8837ZM12.5701 17.8837C12.6925 17.8839 12.8128 17.9148 12.9201 17.9737L17.3901 20.3237C17.4299 20.3508 17.477 20.3653 17.5251 20.3653C17.5733 20.3653 17.6203 20.3508 17.6601 20.3237C17.7021 20.299 17.7347 20.261 17.7528 20.2158C17.7709 20.1705 17.7735 20.1206 17.7601 20.0737L16.9101 15.0737C16.8904 14.9549 16.8992 14.8332 16.9357 14.7184C16.9722 14.6037 17.0354 14.4992 17.1201 14.4137L20.7401 10.8837C20.7735 10.8503 20.7976 10.8087 20.8098 10.763C20.8221 10.7174 20.8222 10.6694 20.8101 10.6237C20.7899 10.5774 20.7562 10.5382 20.7134 10.5115C20.6705 10.4847 20.6206 10.4715 20.5701 10.4737L15.5701 9.75369C15.4497 9.73466 15.3354 9.68766 15.2364 9.61646C15.1374 9.54525 15.0565 9.45183 15.0001 9.34369L12.8001 4.81369C12.6801 4.56369 12.4601 4.56369 12.3401 4.81369L10.1101 9.34369C10.0568 9.44826 9.98049 9.53944 9.88699 9.61043C9.79349 9.68143 9.68517 9.73039 9.57011 9.75369L4.57011 10.4737C4.53389 10.478 4.49906 10.4902 4.46804 10.5094C4.43703 10.5285 4.41059 10.5543 4.39058 10.5848C4.37057 10.6153 4.35748 10.6498 4.35221 10.6859C4.34695 10.722 4.34964 10.7588 4.36011 10.7937C4.37258 10.8391 4.39671 10.8805 4.43011 10.9137L8.05011 14.4437C8.1363 14.5282 8.20049 14.6326 8.23709 14.7476C8.2737 14.8626 8.2816 14.9849 8.26011 15.1037L7.41011 20.1037C7.39966 20.1507 7.40361 20.1998 7.42143 20.2445C7.43925 20.2893 7.47012 20.3276 7.51003 20.3546C7.54994 20.3816 7.59705 20.3959 7.64521 20.3957C7.69338 20.3956 7.74038 20.3809 7.78011 20.3537L12.2501 18.0037C12.3484 17.9495 12.4579 17.9187 12.5701 17.9137V17.8837Z" fill="#333333"/>
</g>
</svg>
