<svg width="24" height="24" viewBox="0 0 24 24" fill="none" xmlns="http://www.w3.org/2000/svg">
<g id="tag">
<path id="Vector" d="M20.85 4.59005C20.8133 4.21067 20.6471 3.8555 20.3795 3.58417C20.1118 3.31284 19.7589 3.1419 19.38 3.10005L17.5 2.89005C17.8457 2.47758 18.2993 2.16942 18.81 2.00005C18.9092 1.96927 19.0007 1.91797 19.0788 1.84949C19.1568 1.78101 19.2195 1.69688 19.2629 1.60257C19.3063 1.50826 19.3294 1.40587 19.3306 1.30207C19.3318 1.19826 19.3112 1.09536 19.27 1.00005C19.2063 0.81183 19.0704 0.656617 18.8923 0.568494C18.7142 0.480371 18.5083 0.466543 18.32 0.530047C17.7192 0.739248 17.171 1.07654 16.7135 1.51857C16.2559 1.9606 15.8999 2.4968 15.67 3.09005C15.607 3.18205 15.5691 3.2889 15.56 3.40005C15.3382 4.10204 15.3003 4.84922 15.45 5.57005C15.2822 5.69352 15.131 5.83803 15 6.00005C14.7038 6.29664 14.5022 6.67439 14.4206 7.08556C14.339 7.49673 14.3811 7.92285 14.5417 8.31008C14.7022 8.6973 14.9739 9.02825 15.3225 9.26108C15.6711 9.49391 16.0809 9.61818 16.5 9.61818C16.9192 9.61818 17.329 9.49391 17.6776 9.26108C18.0261 9.02825 18.2979 8.6973 18.4584 8.31008C18.6189 7.92285 18.6611 7.49673 18.5795 7.08556C18.4979 6.67439 18.2963 6.29664 18 6.00005C17.7212 5.73155 17.3761 5.54178 17 5.45005C16.92 5.10005 16.9 4.73805 16.94 4.38005L19.29 4.65005C19.3246 4.65464 19.3565 4.67112 19.3802 4.69667C19.4039 4.72222 19.418 4.75524 19.42 4.79005L20.23 12.31C20.2391 12.3305 20.2438 12.3527 20.2438 12.375C20.2438 12.3974 20.2391 12.4196 20.23 12.44L11.49 21.17C11.4578 21.1824 11.4222 21.1824 11.39 21.17C11.345 21.1699 11.3018 21.152 11.27 21.12L2.79004 12.73C2.77545 12.6914 2.77545 12.6487 2.79004 12.61C2.77611 12.5747 2.77611 12.5354 2.79004 12.5L11.53 3.77005C11.5483 3.75952 11.569 3.75397 11.59 3.75397C11.6111 3.75397 11.6318 3.75952 11.65 3.77005L13.72 4.00005C13.819 4.01345 13.9196 4.00697 14.0159 3.98099C14.1123 3.95502 14.2025 3.91006 14.2813 3.84876C14.3601 3.78746 14.4259 3.71104 14.4747 3.624C14.5236 3.53696 14.5546 3.44104 14.5659 3.34186C14.5772 3.24268 14.5686 3.14224 14.5406 3.04643C14.5126 2.95061 14.4658 2.86136 14.4028 2.78388C14.3399 2.70641 14.2621 2.64228 14.174 2.59526C14.086 2.54824 13.9894 2.51927 13.89 2.51005L11.84 2.28005C11.5877 2.24183 11.3298 2.26455 11.088 2.34631C10.8462 2.42808 10.6274 2.56651 10.45 2.75005L1.74004 11.43C1.5825 11.5816 1.45706 11.7632 1.37116 11.9642C1.28526 12.1652 1.24067 12.3815 1.24004 12.6C1.23839 12.821 1.28088 13.0401 1.36502 13.2445C1.44917 13.4488 1.57326 13.6343 1.73004 13.79L10.11 22.17C10.2639 22.3265 10.4477 22.4505 10.6504 22.5347C10.853 22.6189 11.0706 22.6615 11.29 22.66C11.5063 22.6599 11.7204 22.6165 11.9196 22.5324C12.1188 22.4482 12.2992 22.325 12.45 22.17L21.18 13.45C21.3547 13.2748 21.4877 13.0624 21.569 12.8287C21.6504 12.595 21.6781 12.3459 21.65 12.1L20.85 4.59005ZM16.85 7.89005C16.7287 7.98038 16.5784 8.02321 16.4277 8.01047C16.2769 7.99774 16.136 7.93031 16.0315 7.82089C15.927 7.71147 15.8661 7.56762 15.8603 7.41643C15.8545 7.26524 15.9042 7.11714 16 7.00005C16.1198 6.89089 16.277 6.83208 16.439 6.83583C16.601 6.83958 16.7553 6.90561 16.8699 7.02019C16.9845 7.13476 17.0505 7.28909 17.0543 7.45108C17.058 7.61308 16.9992 7.77029 16.89 7.89005H16.85Z" fill="#333333"/>
</g>
</svg>
