<svg width="24" height="25" viewBox="0 0 24 25" fill="none" xmlns="http://www.w3.org/2000/svg">
<g id="donor">
<path id="Vector" fill-rule="evenodd" clip-rule="evenodd" d="M12.286 4.89658C12.1715 4.94311 12.0474 4.96101 11.9244 4.94872C11.8014 4.93643 11.6832 4.89432 11.5802 4.82605C11.4771 4.75778 11.3923 4.66541 11.333 4.55694C11.2738 4.44847 11.2418 4.32718 11.24 4.20358V1.91358C11.2523 1.71793 11.3369 1.53382 11.4774 1.39706C11.6178 1.2603 11.8041 1.18064 12 1.17358C12.1981 1.1788 12.3863 1.26117 12.5245 1.40313C12.6628 1.5451 12.7401 1.73544 12.74 1.93358V4.20358C12.7421 4.35121 12.7 4.49608 12.6191 4.61957C12.5382 4.74307 12.4222 4.83954 12.286 4.89658ZM21.789 16.2066C22.048 16.4916 22.236 16.8326 22.34 17.2036C22.4016 17.3489 22.4163 17.5098 22.3823 17.6639C22.3482 17.818 22.2671 17.9577 22.15 18.0636C20.2219 19.8042 18.188 21.4239 16.06 22.9136C16.0019 22.9536 15.9378 22.984 15.87 23.0036C14.33 23.5006 12.72 23.7506 11.1 23.7436C9.00347 23.834 6.92392 23.3314 5.10002 22.2936C5.0188 22.2368 4.94965 22.1645 4.89656 22.0809C4.84348 21.9972 4.80753 21.9038 4.79079 21.8062C4.77405 21.7085 4.77685 21.6085 4.79903 21.5119C4.82122 21.4154 4.86234 21.3242 4.92002 21.2436C5.03223 21.0916 5.19832 20.9883 5.38425 20.9548C5.57017 20.9214 5.76186 20.9603 5.92002 21.0636C7.77002 22.3636 12.2 22.6236 15.27 21.6236C17.1513 20.294 18.9605 18.8653 20.69 17.3436C20.6179 17.2037 20.502 17.0913 20.36 17.0236C19.86 16.8636 18.73 17.5536 17.73 18.2236C16 19.3636 13.84 20.7236 11.43 20.3636C10.628 20.2499 9.86211 19.9558 9.19002 19.5036L9.05002 19.4036C8.96216 19.3356 8.87866 19.2621 8.80002 19.1836C8.71001 19.0934 8.64447 18.9817 8.60958 18.8591C8.5747 18.7366 8.57162 18.6071 8.60064 18.483C8.62966 18.359 8.68982 18.2443 8.77545 18.1499C8.86107 18.0555 8.96934 17.9845 9.09002 17.9436C10.71 17.3736 11.72 16.6636 11.92 15.9436C11.9597 15.7658 11.9597 15.5814 11.92 15.4036C10.1496 16.3001 8.21171 16.8178 6.23002 16.9236C3.39002 17.2536 2.01002 17.5036 1.69002 19.6836C1.65338 19.8781 1.54414 20.0514 1.38445 20.1684C1.22475 20.2854 1.02655 20.3373 0.830021 20.3136C0.633983 20.2839 0.457657 20.1779 0.339599 20.0186C0.221541 19.8593 0.171357 19.6598 0.200021 19.4636C0.670021 16.2836 3.00002 15.7636 5.41002 15.4636C3.87002 13.5136 3.22002 11.7936 3.47002 10.3436C3.59919 9.72254 3.87421 9.14111 4.27239 8.64731C4.67056 8.1535 5.18047 7.76147 5.76002 7.50358C6.2644 7.20433 6.82698 7.01648 7.40996 6.95266C7.99295 6.88885 8.58285 6.95053 9.14002 7.13358C10.3218 7.62318 11.3216 8.46911 12 9.55358C12.6889 8.46269 13.7034 7.61609 14.9 7.13358C15.4573 6.95118 16.0471 6.88983 16.63 6.95364C17.2129 7.01745 17.7754 7.20494 18.28 7.50358C18.9067 7.77809 19.4512 8.21107 19.8597 8.75989C20.2683 9.30871 20.5268 9.95447 20.61 10.6336C20.77 12.4536 19.58 14.4536 17.92 16.3136C18.3268 15.9871 18.7986 15.7512 19.304 15.6219C19.8093 15.4925 20.3364 15.4727 20.85 15.5636C21.209 15.7016 21.53 15.9226 21.79 16.2076L21.789 16.2066ZM11 18.7036C11.222 18.7696 11.45 18.8166 11.68 18.8436C12.132 18.9066 12.59 18.9006 13.04 18.8236C17.01 15.6936 19.28 12.6936 19.11 10.8236C19.0538 10.3836 18.8816 9.96642 18.611 9.61495C18.3403 9.26348 17.9811 8.99035 17.57 8.82358C17.2473 8.62472 16.8856 8.49767 16.5094 8.45108C16.1333 8.40449 15.7515 8.43945 15.39 8.55358C13.71 9.12358 12.71 11.3436 12.71 11.3436C12.6394 11.4639 12.5386 11.5636 12.4176 11.633C12.2966 11.7023 12.1595 11.7387 12.02 11.7387C11.8805 11.7387 11.7435 11.7023 11.6225 11.633C11.5014 11.5636 11.4006 11.4639 11.33 11.3436C11.32 11.3136 10.31 9.12358 8.65002 8.55358C8.28857 8.43945 7.90678 8.40449 7.53061 8.45108C7.15444 8.49767 6.79271 8.62472 6.47002 8.82358C6.10316 8.98509 5.77916 9.23017 5.52391 9.53924C5.26867 9.84831 5.08926 10.2128 5.00002 10.6036C4.74002 11.7536 5.52002 13.3636 7.15002 15.2636C8.7847 15.1202 10.36 14.5814 11.74 13.6936C11.8911 13.5837 12.0781 13.535 12.2636 13.5572C12.4491 13.5795 12.6193 13.6711 12.74 13.8136C13.0285 14.1484 13.2333 14.5469 13.3376 14.9763C13.442 15.4057 13.4428 15.8538 13.34 16.2836C13.1463 16.8311 12.837 17.3306 12.4333 17.7482C12.0296 18.1657 11.5407 18.4915 11 18.7036ZM15.52 5.92358C15.6186 5.92405 15.7162 5.90483 15.8072 5.86705C15.8982 5.82927 15.9808 5.7737 16.05 5.70358L17.05 4.70358C17.1663 4.56001 17.2256 4.37856 17.2163 4.19402C17.2071 4.00948 17.1301 3.83484 17 3.70358C16.8625 3.5806 16.6845 3.5126 16.5 3.5126C16.3155 3.5126 16.1375 3.5806 16 3.70358L15 4.70358C14.877 4.84109 14.809 5.0191 14.809 5.20358C14.809 5.38807 14.877 5.56608 15 5.70358C15.0677 5.77294 15.1486 5.82812 15.2379 5.86589C15.3272 5.90367 15.4231 5.92328 15.52 5.92358ZM8.18302 5.86758C8.09176 5.82991 8.0091 5.77412 7.94002 5.70358L7.00002 4.70358C6.87703 4.56608 6.80904 4.38807 6.80904 4.20358C6.80904 4.0191 6.87703 3.84109 7.00002 3.70358C7.13753 3.5806 7.31554 3.5126 7.50002 3.5126C7.6845 3.5126 7.86252 3.5806 8.00002 3.70358L9.00002 4.64358C9.14047 4.78421 9.21936 4.97483 9.21936 5.17358C9.21936 5.37233 9.14047 5.56296 9.00002 5.70358C8.85717 5.84076 8.66802 5.91928 8.47002 5.92358C8.37156 5.92446 8.27393 5.90542 8.18302 5.86758Z" fill="#333333"/>
</g>
</svg>
