<svg width="40" height="40" viewBox="0 0 40 40" fill="none" xmlns="http://www.w3.org/2000/svg">
<rect x="0.5" y="0.5" width="39" height="39" rx="19.5" fill="#F1F1F1"/>
<g clip-path="url(#clip0_393_705)">
<path fill-rule="evenodd" clip-rule="evenodd" d="M20.286 12.193C20.1715 12.2395 20.0474 12.2574 19.9244 12.2451C19.8014 12.2328 19.6832 12.1907 19.5802 12.1224C19.4771 12.0542 19.3923 11.9618 19.333 11.8533C19.2738 11.7449 19.2418 11.6236 19.24 11.5V9.20997C19.2523 9.01431 19.3369 8.83021 19.4774 8.69345C19.6178 8.55668 19.8041 8.47703 20 8.46997C20.1981 8.47519 20.3863 8.55755 20.5245 8.69952C20.6628 8.84149 20.7401 9.03182 20.74 9.22997V11.5C20.7421 11.6476 20.7 11.7925 20.6191 11.916C20.5382 12.0395 20.4222 12.1359 20.286 12.193ZM29.789 23.503C30.048 23.788 30.236 24.129 30.34 24.5C30.4016 24.6453 30.4163 24.8062 30.3823 24.9603C30.3482 25.1144 30.2671 25.2541 30.15 25.36C28.2219 27.1005 26.188 28.7203 24.06 30.21C24.0019 30.25 23.9378 30.2804 23.87 30.3C22.33 30.797 20.72 31.047 19.1 31.04C17.0035 31.1304 14.9239 30.6278 13.1 29.59C13.0188 29.5332 12.9496 29.4609 12.8966 29.3772C12.8435 29.2936 12.8075 29.2002 12.7908 29.1026C12.774 29.0049 12.7768 28.9049 12.799 28.8083C12.8212 28.7117 12.8623 28.6205 12.92 28.54C13.0322 28.388 13.1983 28.2847 13.3842 28.2512C13.5702 28.2178 13.7619 28.2567 13.92 28.36C15.77 29.66 20.2 29.92 23.27 28.92C25.1513 27.5904 26.9605 26.1617 28.69 24.64C28.6179 24.5001 28.502 24.3877 28.36 24.32C27.86 24.16 26.73 24.85 25.73 25.52C24 26.66 21.84 28.02 19.43 27.66C18.628 27.5463 17.8621 27.2522 17.19 26.8L17.05 26.7C16.9622 26.6319 16.8787 26.5585 16.8 26.48C16.71 26.3898 16.6445 26.2781 16.6096 26.1555C16.5747 26.033 16.5716 25.9035 16.6006 25.7794C16.6297 25.6553 16.6898 25.5407 16.7754 25.4463C16.8611 25.3519 16.9693 25.2809 17.09 25.24C18.71 24.67 19.72 23.96 19.92 23.24C19.9597 23.0622 19.9597 22.8778 19.92 22.7C18.1496 23.5965 16.2117 24.1142 14.23 24.22C11.39 24.55 10.01 24.8 9.69002 26.98C9.65338 27.1745 9.54414 27.3478 9.38445 27.4648C9.22475 27.5818 9.02655 27.6337 8.83002 27.61C8.63398 27.5803 8.45766 27.4743 8.3396 27.315C8.22154 27.1557 8.17136 26.9562 8.20002 26.76C8.67002 23.58 11 23.06 13.41 22.76C11.87 20.81 11.22 19.09 11.47 17.64C11.5992 17.0189 11.8742 16.4375 12.2724 15.9437C12.6706 15.4499 13.1805 15.0579 13.76 14.8C14.2644 14.5007 14.827 14.3129 15.41 14.2491C15.993 14.1852 16.5828 14.2469 17.14 14.43C18.3218 14.9196 19.3216 15.7655 20 16.85C20.6889 15.7591 21.7034 14.9125 22.9 14.43C23.4573 14.2476 24.0471 14.1862 24.63 14.25C25.2129 14.3138 25.7754 14.5013 26.28 14.8C26.9067 15.0745 27.4512 15.5075 27.8597 16.0563C28.2683 16.6051 28.5268 17.2509 28.61 17.93C28.77 19.75 27.58 21.75 25.92 23.61C26.3268 23.2834 26.7986 23.0476 27.304 22.9183C27.8093 22.7889 28.3364 22.769 28.85 22.86C29.209 22.998 29.53 23.219 29.79 23.504L29.789 23.503ZM19 26C19.222 26.066 19.45 26.113 19.68 26.14C20.132 26.203 20.59 26.197 21.04 26.12C25.01 22.99 27.28 19.99 27.11 18.12C27.0538 17.68 26.8816 17.2628 26.611 16.9113C26.3403 16.5599 25.9811 16.2867 25.57 16.12C25.2473 15.9211 24.8856 15.7941 24.5094 15.7475C24.1333 15.7009 23.7515 15.7358 23.39 15.85C21.71 16.42 20.71 18.64 20.71 18.64C20.6394 18.7603 20.5386 18.86 20.4176 18.9293C20.2966 18.9987 20.1595 19.0351 20.02 19.0351C19.8805 19.0351 19.7435 18.9987 19.6225 18.9293C19.5014 18.86 19.4006 18.7603 19.33 18.64C19.32 18.61 18.31 16.42 16.65 15.85C16.2886 15.7358 15.9068 15.7009 15.5306 15.7475C15.1544 15.7941 14.7927 15.9211 14.47 16.12C14.1032 16.2815 13.7792 16.5266 13.5239 16.8356C13.2687 17.1447 13.0893 17.5092 13 17.9C12.74 19.05 13.52 20.66 15.15 22.56C16.7847 22.4166 18.36 21.8778 19.74 20.99C19.8911 20.8801 20.0781 20.8313 20.2636 20.8536C20.4491 20.8759 20.6193 20.9674 20.74 21.11C21.0285 21.4447 21.2333 21.8432 21.3376 22.2727C21.442 22.7021 21.4428 23.1502 21.34 23.58C21.1463 24.1275 20.837 24.627 20.4333 25.0445C20.0296 25.4621 19.5407 25.7879 19 26ZM23.52 13.22C23.6186 13.2204 23.7162 13.2012 23.8072 13.1634C23.8982 13.1257 23.9808 13.0701 24.05 13L25.05 12C25.1663 11.8564 25.2256 11.6749 25.2163 11.4904C25.2071 11.3059 25.1301 11.1312 25 11C24.8625 10.877 24.6845 10.809 24.5 10.809C24.3155 10.809 24.1375 10.877 24 11L23 12C22.877 12.1375 22.809 12.3155 22.809 12.5C22.809 12.6845 22.877 12.8625 23 13C23.0677 13.0693 23.1486 13.1245 23.2379 13.1623C23.3272 13.2001 23.4231 13.2197 23.52 13.22ZM16.183 13.164C16.0918 13.1263 16.0091 13.0705 15.94 13L15 12C14.877 11.8625 14.809 11.6845 14.809 11.5C14.809 11.3155 14.877 11.1375 15 11C15.1375 10.877 15.3155 10.809 15.5 10.809C15.6845 10.809 15.8625 10.877 16 11L17 11.94C17.1405 12.0806 17.2194 12.2712 17.2194 12.47C17.2194 12.6687 17.1405 12.8593 17 13C16.8572 13.1371 16.668 13.2157 16.47 13.22C16.3716 13.2209 16.2739 13.2018 16.183 13.164Z" fill="#333333"/>
</g>
<rect x="0.5" y="0.5" width="39" height="39" rx="19.5" stroke="white"/>
<defs>
<clipPath id="clip0_393_705">
<rect width="24" height="24" fill="white" transform="translate(8 8)"/>
</clipPath>
</defs>
</svg>
